<svg xmlns="http://www.w3.org/2000/svg" xmlns:xlink="http://www.w3.org/1999/xlink" width="500" zoomAndPan="magnify" viewBox="0 0 375 112.499997" height="150" preserveAspectRatio="xMidYMid meet" version="1.0"><defs><g/><clipPath id="id1"><path d="M 0.828125 0 L 374.167969 0 L 374.167969 112.003906 L 0.828125 112.003906 Z M 0.828125 0 " clip-rule="nonzero"/></clipPath></defs><g clip-path="url(#id1)"><path fill="#ffffff" d="M 0.828125 0 L 374.171875 0 L 374.171875 112.003906 L 0.828125 112.003906 Z M 0.828125 0 " fill-opacity="1" fill-rule="nonzero"/><path fill="#ffffff" d="M 0.828125 0 L 374.171875 0 L 374.171875 112.003906 L 0.828125 112.003906 Z M 0.828125 0 " fill-opacity="1" fill-rule="nonzero"/></g><path fill="#ebecf0" d="M 85.503906 102.984375 L 9.527344 104.347656 C 7.960938 104.378906 6.6875 103.113281 6.738281 101.582031 L 9.324219 14.980469 C 9.367188 13.546875 10.550781 12.394531 12.011719 12.371094 L 79.574219 11.15625 C 81.039062 11.128906 82.265625 12.234375 82.359375 13.664062 L 88.179688 100.113281 C 88.292969 101.652344 87.0625 102.953125 85.503906 102.984375 Z M 85.503906 102.984375 " fill-opacity="1" fill-rule="evenodd"/><path fill="#ff5777" d="M 85.5625 102.265625 L 11.078125 102.265625 C 9.539062 102.265625 8.320312 101.007812 8.394531 99.507812 L 12.515625 14.683594 C 12.582031 13.273438 13.769531 12.171875 15.199219 12.171875 L 81.433594 12.171875 C 82.867188 12.171875 84.050781 13.273438 84.121094 14.683594 L 88.242188 99.507812 C 88.316406 101.007812 87.09375 102.265625 85.5625 102.265625 Z M 85.5625 102.265625 " fill-opacity="1" fill-rule="evenodd"/><path fill="#ebecf0" d="M 48.316406 55.933594 C 35.832031 55.933594 25.511719 46.65625 24.164062 34.761719 C 24.003906 33.355469 25.113281 32.121094 26.558594 32.121094 C 27.792969 32.121094 28.8125 33.039062 28.949219 34.242188 C 30.035156 43.773438 38.3125 51.210938 48.316406 51.210938 C 58.324219 51.210938 66.601562 43.773438 67.679688 34.242188 C 67.816406 33.039062 68.839844 32.121094 70.070312 32.121094 C 71.515625 32.121094 72.625 33.355469 72.464844 34.761719 C 71.125 46.652344 60.808594 55.933594 48.316406 55.933594 Z M 48.316406 55.933594 " fill-opacity="1" fill-rule="nonzero"/><g fill="#2a2a2a" fill-opacity="1"><g transform="translate(107.982562, 86.359244)"><g><path d="M 26.859375 0.78125 C 23.929688 0.78125 21.304688 0.0625 18.984375 -1.375 C 16.660156 -2.8125 15.054688 -4.46875 14.171875 -6.34375 L 14.015625 0 L 5.875 0 L 5.875 -57.5625 L 14.171875 -57.5625 L 14.171875 -35.390625 L 13.78125 -29.28125 C 14.664062 -31.375 16.398438 -33.164062 18.984375 -34.65625 C 21.578125 -36.144531 24.382812 -36.890625 27.40625 -36.890625 C 30.957031 -36.890625 34.050781 -36.09375 36.6875 -34.5 C 39.320312 -32.90625 41.34375 -30.6875 42.75 -27.84375 C 44.164062 -25 44.875 -21.695312 44.875 -17.9375 C 44.875 -14.125 44.050781 -10.804688 42.40625 -7.984375 C 40.757812 -5.171875 38.566406 -3.003906 35.828125 -1.484375 C 33.085938 0.0234375 30.097656 0.78125 26.859375 0.78125 Z M 25.453125 -6.265625 C 28.847656 -6.265625 31.457031 -7.347656 33.28125 -9.515625 C 35.113281 -11.679688 36.03125 -14.488281 36.03125 -17.9375 C 36.03125 -21.4375 35.128906 -24.269531 33.328125 -26.4375 C 31.523438 -28.601562 28.898438 -29.6875 25.453125 -29.6875 C 22.472656 -29.6875 19.960938 -28.65625 17.921875 -26.59375 C 15.890625 -24.53125 14.875 -21.828125 14.875 -18.484375 L 14.875 -17.9375 C 14.875 -15.6875 15.359375 -13.671875 16.328125 -11.890625 C 17.296875 -10.117188 18.570312 -8.738281 20.15625 -7.75 C 21.75 -6.757812 23.515625 -6.265625 25.453125 -6.265625 Z M 25.453125 -6.265625 "/></g></g></g><g fill="#2a2a2a" fill-opacity="1"><g transform="translate(156.29441, 86.359244)"><g><path d="M 18.015625 0.78125 C 13.054688 0.78125 9.648438 -0.675781 7.796875 -3.59375 C 5.941406 -6.519531 5.015625 -10.59375 5.015625 -15.8125 L 5.015625 -35.953125 L 13.46875 -35.953125 L 13.46875 -17.9375 C 13.46875 -14.957031 13.632812 -12.644531 13.96875 -11 C 14.3125 -9.351562 14.992188 -8.140625 16.015625 -7.359375 C 17.035156 -6.578125 18.5625 -6.1875 20.59375 -6.1875 C 22.050781 -6.1875 23.457031 -6.601562 24.8125 -7.4375 C 26.175781 -8.269531 27.289062 -9.40625 28.15625 -10.84375 C 29.019531 -12.28125 29.453125 -13.859375 29.453125 -15.578125 L 29.453125 -35.953125 L 37.828125 -35.953125 L 37.828125 0 L 30.9375 0 L 30 -5.25 C 28.6875 -3.207031 27.050781 -1.691406 25.09375 -0.703125 C 23.132812 0.285156 20.773438 0.78125 18.015625 0.78125 Z M 18.015625 0.78125 "/></g></g></g><g fill="#2a2a2a" fill-opacity="1"><g transform="translate(199.829886, 86.359244)"><g><path d="M 15.890625 1.09375 L 1.015625 -35.953125 L 10.578125 -35.953125 L 18.25 -13.078125 L 19.96875 -7.515625 L 21.6875 -13.078125 L 29.765625 -35.953125 L 39 -35.953125 L 16.921875 19.734375 L 8.140625 19.734375 Z M 15.890625 1.09375 "/></g></g></g><g fill="#ff5777" fill-opacity="1"><g transform="translate(238.736997, 86.359244)"><g><path d="M -1.25 -57.5625 L 8.6875 -57.5625 L 25.921875 -18.015625 L 43.234375 -57.5625 L 53.09375 -57.5625 L 26.546875 0 L 25.375 0 Z M -1.25 -57.5625 "/></g></g></g><g fill="#ff5777" fill-opacity="1"><g transform="translate(290.572413, 86.359244)"><g><path d="M 21.453125 0.78125 C 18.222656 0.78125 15.234375 0.0078125 12.484375 -1.53125 C 9.742188 -3.070312 7.550781 -5.265625 5.90625 -8.109375 C 4.269531 -10.953125 3.453125 -14.28125 3.453125 -18.09375 C 3.453125 -21.851562 4.164062 -25.140625 5.59375 -27.953125 C 7.03125 -30.773438 9.078125 -32.96875 11.734375 -34.53125 C 14.398438 -36.101562 17.535156 -36.890625 21.140625 -36.890625 C 23.234375 -36.890625 25.191406 -36.519531 27.015625 -35.78125 C 28.847656 -35.050781 30.390625 -34.148438 31.640625 -33.078125 C 32.890625 -32.015625 33.722656 -30.960938 34.140625 -29.921875 L 34.296875 -35.953125 L 42.359375 -35.953125 L 42.359375 0 L 34.375 0 L 34.21875 -6.34375 C 33.332031 -4.46875 31.710938 -2.8125 29.359375 -1.375 C 27.015625 0.0625 24.378906 0.78125 21.453125 0.78125 Z M 22.875 -6.265625 C 25.84375 -6.265625 28.34375 -7.296875 30.375 -9.359375 C 32.414062 -11.421875 33.4375 -14.125 33.4375 -17.46875 L 33.4375 -18.015625 C 33.4375 -20.253906 32.96875 -22.257812 32.03125 -24.03125 C 31.09375 -25.8125 29.8125 -27.195312 28.1875 -28.1875 C 26.570312 -29.1875 24.800781 -29.6875 22.875 -29.6875 C 19.53125 -29.6875 16.941406 -28.601562 15.109375 -26.4375 C 13.285156 -24.269531 12.375 -21.460938 12.375 -18.015625 C 12.375 -14.515625 13.273438 -11.679688 15.078125 -9.515625 C 16.878906 -7.347656 19.476562 -6.265625 22.875 -6.265625 Z M 22.875 -6.265625 "/></g></g></g><g fill="#ff5777" fill-opacity="1"><g transform="translate(338.72767, 86.359244)"><g><path d="M 17.9375 -26.390625 L 19.890625 -29.203125 L 11.203125 -28.96875 L 5.015625 -28.96875 L 5.015625 -35.953125 L 32.96875 -35.953125 L 16.765625 -9.46875 L 14.796875 -6.5 L 23.265625 -6.8125 L 32.34375 -6.96875 L 32.34375 0 L 1.5625 0 Z M 17.9375 -26.390625 "/></g></g></g></svg>